<svg xmlns="http://www.w3.org/2000/svg" width="16" height="16" viewBox="0 0 16 16"><g transform="translate(-926 -2725)"><g transform="translate(925 2725)"><rect width="16" height="16" transform="translate(1)" fill="none"/></g><g transform="translate(925.05 2722)"><path d="M12.6,17.15H3.536A1.635,1.635,0,0,1,1.95,15.473V8.5a.65.65,0,1,1,1.3,0v6.973c0,.2.131.377.286.377H12.6a.65.65,0,0,1,0,1.3Z" transform="translate(-1 0.85)" fill="#fff"/><path d="M1.3,1.3V9.7H11.7V1.3H1.3M1,0H12a1,1,0,0,1,1,1v9a1,1,0,0,1-1,1H1a1,1,0,0,1-1-1V1A1,1,0,0,1,1,0Z" transform="translate(3.95 4)" fill="#fff"/><path d="M5.5,3.5V6H17.033V3.5Z" transform="translate(-0.539 1)" fill="#fff"/></g></g></svg>